<svg id="Ebene_1" data-name="Ebene 1" xmlns="http://www.w3.org/2000/svg" viewBox="0 0 90.64 30.21"><defs><style>.cls-1{fill:#1d1d1b;}.cls-2{fill:#be1622;stroke:#1d1d1b;stroke-miterlimit:10;stroke-width:0.66px;}</style></defs><path class="cls-1" d="M.53,10.37h8a9.06,9.06,0,0,1,3.83.75A7.11,7.11,0,0,1,15,13.19a9,9,0,0,1,1.53,3.06A13.78,13.78,0,0,1,17,20a13.76,13.76,0,0,1-.49,3.75A9,9,0,0,1,15,26.82a7.11,7.11,0,0,1-2.65,2.07,9.06,9.06,0,0,1-3.83.75h-8ZM3.9,26.89H7.22a8.44,8.44,0,0,0,3.23-.53,4.7,4.7,0,0,0,2-1.45,5.26,5.26,0,0,0,1-2.19A13.62,13.62,0,0,0,13.65,20a13.65,13.65,0,0,0-.26-2.72,5.26,5.26,0,0,0-1-2.19,4.7,4.7,0,0,0-2-1.45,8.44,8.44,0,0,0-3.23-.53H3.9Z"/><path class="cls-1" d="M19.67,10.37h3.08v2.91H19.67Zm0,5.32h3.08v14H19.67Z"/><path class="cls-1" d="M24.69,10.37H40.3v2.91H34.17V29.64H30.79V13.28h-6.1Z"/><path class="cls-1" d="M45.21,10.37H48.8l7.43,19.27H52.61l-1.81-5.1H43.11l-1.81,5.1H37.81ZM44,22h5.89L47,13.69h-.08Z"/><path class="cls-1" d="M58,10.37h3.38V18h8.77V10.37h3.38V29.64H70.13V21H61.36v8.69H58Z"/><line class="cls-2" x1="72.18" y1="3.85" x2="78.03" y2="10.69"/><line class="cls-2" x1="85.85" y1="4.62" x2="78.03" y2="10.69"/><circle class="cls-1" cx="86.51" cy="4.11" r="3.55"/><circle class="cls-1" cx="72.18" cy="3.85" r="2.33"/><circle class="cls-1" cx="78.03" cy="10.69" r="1.73"/><rect class="cls-1" x="19.69" y="10.37" width="20.56" height="2.93"/></svg>