<svg id="Ebene_1" data-name="Ebene 1" xmlns="http://www.w3.org/2000/svg" viewBox="0 0 98.19 34.91"><defs><style>.cls-1{fill:#1d1d1b;}.cls-2{fill:#be1622;stroke:#1d1d1b;stroke-miterlimit:10;}</style></defs><path class="cls-1" d="M.49,14.94h8a9.06,9.06,0,0,1,3.83.75A7,7,0,0,1,15,17.76a9,9,0,0,1,1.53,3.06,14.63,14.63,0,0,1,0,7.51A9,9,0,0,1,15,31.39a7.21,7.21,0,0,1-2.65,2.07,9.06,9.06,0,0,1-3.83.75h-8ZM3.86,31.46H7.18a8.44,8.44,0,0,0,3.23-.53,4.64,4.64,0,0,0,2-1.46,5.22,5.22,0,0,0,1-2.18,13.65,13.65,0,0,0,.26-2.72,13.62,13.62,0,0,0-.26-2.71,5.2,5.2,0,0,0-1-2.19,4.7,4.7,0,0,0-2-1.45,8.26,8.26,0,0,0-3.23-.53H3.86Z"/><path class="cls-1" d="M19.63,14.94h3.08v2.91H19.63Zm0,5.31h3.08v14H19.63Z"/><path class="cls-1" d="M24.65,14.94H40.26v2.91H34.13V34.21H30.75V17.85h-6.1Z"/><path class="cls-1" d="M45.17,14.94h3.59l7.43,19.27H52.57l-1.81-5.1H43.07l-1.81,5.1H37.77ZM44,26.54h5.89L47,18.26H46.9Z"/><path class="cls-1" d="M57.94,14.94h3.38V22.6h8.77V14.94h3.38V34.21H70.09V25.52H61.32v8.69H57.94Z"/><line class="cls-2" x1="70.35" y1="5.6" x2="79.23" y2="16"/><line class="cls-2" x1="91.12" y1="6.78" x2="79.23" y2="16"/><circle class="cls-1" cx="92.12" cy="6" r="5.39"/><circle class="cls-1" cx="70.35" cy="5.6" r="3.54"/><circle class="cls-1" cx="79.23" cy="16" r="2.63"/><rect class="cls-1" x="19.65" y="14.94" width="20.56" height="2.93"/></svg>